<svg xmlns="http://www.w3.org/2000/svg" viewBox="0 0 100 100" width="100" height="100">
  <defs>
    <linearGradient id="bg-dentistry" x1="0" y1="0" x2="1" y2="1">
      <stop offset="0%" stop-color="#EEF1FC"/>
      <stop offset="100%" stop-color="#D9E1F4"/>
    </linearGradient>
  </defs>
  <circle cx="50" cy="50" r="48" fill="url(#bg-dentistry)"/>

  <path d="M50 24c-10 0-17 6-17 15 0 9 3 15 5 24 1.5 6 3 9 6 9s4-6 4-13 1-9 2-14c1 5 2 7 2 14s1 13 4 13 4.5-3 6-9c2-9 5-15 5-24 0-9-7-15-17-15z" fill="#F4EFE6" stroke="#123B4A" stroke-width="1.5"/>

</svg>