<svg xmlns="http://www.w3.org/2000/svg" viewBox="0 0 100 100" width="100" height="100">
  <defs>
    <linearGradient id="bg-gastroenterology" x1="0" y1="0" x2="1" y2="1">
      <stop offset="0%" stop-color="#EEF1FC"/>
      <stop offset="100%" stop-color="#D9E1F4"/>
    </linearGradient>
  </defs>
  <circle cx="50" cy="50" r="48" fill="url(#bg-gastroenterology)"/>

  <path d="M36 24c-6 3-9 9-9 16 0 12 9 15 9 25a10 10 0 0 0 20 0c0-6-5-8-5-14a8 8 0 0 1 15-5c3 5 10 3 10-4 0-13-13-22-27-22-5 0-9 1-13 4z" fill="#E8895F"/>

</svg>