<svg xmlns="http://www.w3.org/2000/svg" viewBox="0 0 100 100" width="100" height="100">
  <defs>
    <linearGradient id="bg-neurology" x1="0" y1="0" x2="1" y2="1">
      <stop offset="0%" stop-color="#EEF1FC"/>
      <stop offset="100%" stop-color="#D9E1F4"/>
    </linearGradient>
  </defs>
  <circle cx="50" cy="50" r="48" fill="url(#bg-neurology)"/>

  <path d="M40 24a12 12 0 0 0-11 16 10 10 0 0 0-3 17 10 10 0 0 0 7 16c1.5 5 6.5 8 12 8 5 0 8-2 10-5"
        fill="#8B6FCE"/>
  <path d="M55 76c2 3 5 5 10 5 6 0 11-3 12-8a10 10 0 0 0 7-16 10 10 0 0 0-3-17 12 12 0 0 0-14-9"
        fill="#8B6FCE"/>
  <path d="M50 28v48" stroke="#123B4A" stroke-width="2.5" stroke-linecap="round"/>
  <circle cx="34" cy="40" r="2" fill="#fff"/><circle cx="66" cy="46" r="2" fill="#fff"/><circle cx="38" cy="62" r="2" fill="#fff"/>

</svg>